<?xml version="1.0" encoding="UTF-8"?>
<svg id="Layer_1" data-name="Layer 1" width="400" height="80" xmlns="http://www.w3.org/2000/svg" viewBox="0 0 888.56 120.36">
  <defs>
    <style>
      .cls-1 {
        isolation: isolate;
      }

      .cls-2, .cls-3 {
        stroke-width: 0px;
      }

      .cls-3 {
        fill: #0042d3;
      }
    </style>
  </defs>
  <path class="cls-2" d="M0,118.73V3.25h22.45v54.89L70.92,3.09h24.72l-44.24,51.31,47.01,64.34h-25.37l-35.95-49.84-14.64,15.31v34.53H0Z"/>
  <path class="cls-2" d="M106.7,21.63V0h21.79v21.63h-21.79ZM106.7,118.73V33.51h21.79v85.23h-21.79Z"/>
  <path class="cls-2" d="M227.38,118.73h-21.8v-47.13c0-6.73-1.19-11.65-3.58-14.75-2.39-3.1-5.69-4.65-9.92-4.65-2.93,0-5.88.74-8.86,2.22-2.98,1.48-5.67,3.52-8.05,6.11-2.39,2.59-4.12,5.59-5.2,8.97v49.21h-21.79V34.32h19.68v15.75c2.17-3.64,4.93-6.73,8.29-9.25,3.36-2.52,7.24-4.45,11.63-5.79,4.39-1.34,9.03-2.01,13.91-2.01,5.31,0,9.68.94,13.09,2.82,3.42,1.88,6.02,4.4,7.81,7.56,1.79,3.16,3.03,6.73,3.74,10.69.7,3.97,1.06,7.99,1.06,12.06v52.59Z"/>
  <g class="cls-1">
    <path class="cls-2" d="M285.94,120.36c-6.83,0-13.01-1.15-18.54-3.46-5.53-2.3-10.25-5.47-14.15-9.49s-6.91-8.63-9.03-13.83c-2.11-5.2-3.17-10.7-3.17-16.49,0-8.04,1.81-15.39,5.45-22.04,3.63-6.65,8.84-11.99,15.61-16.01,6.78-4.02,14.77-6.03,23.99-6.03s17.29,2.02,23.91,6.04c6.61,4.03,11.68,9.34,15.21,15.95,3.52,6.6,5.29,13.72,5.29,21.35,0,1.29-.06,2.61-.16,3.95-.11,1.34-.22,2.44-.33,3.3h-65.87c.43,4.24,1.71,7.95,3.82,11.12,2.11,3.18,4.82,5.59,8.13,7.23,3.31,1.64,6.86,2.46,10.65,2.46,4.34,0,8.43-1.06,12.28-3.17,3.85-2.11,6.48-4.9,7.89-8.38l18.71,5.21c-2.06,4.34-5.02,8.19-8.86,11.55-3.85,3.36-8.38,5.99-13.58,7.89-5.2,1.9-10.95,2.85-17.24,2.85ZM263.66,69.78h44.57c-.43-4.24-1.65-7.92-3.66-11.05-2.01-3.13-4.64-5.56-7.89-7.31-3.25-1.75-6.89-2.62-10.9-2.62s-7.46.87-10.65,2.62c-3.2,1.75-5.8,4.19-7.81,7.31-2.01,3.13-3.23,6.81-3.66,11.05Z"/>
  </g>
  <path class="cls-2" d="M394.1,114.51c-1.84.76-4.07,1.63-6.67,2.6-2.6.98-5.4,1.76-8.38,2.36-2.98.59-5.99.9-9.03.9-4.01,0-7.7-.7-11.06-2.09-3.36-1.4-6.05-3.63-8.05-6.69-2.01-3.06-3.01-7.06-3.01-12v-48.5h-11.22v-16.75h11.22V6.67h21.79v27.65h17.89v16.75h-17.89v41.1c.11,2.89.92,4.98,2.44,6.26,1.52,1.29,3.42,1.93,5.69,1.93s4.5-.38,6.67-1.14c2.17-.76,3.9-1.41,5.2-1.95l4.39,17.24Z"/>
  <path class="cls-2" d="M405.48,21.63V0h21.79v21.63h-21.79ZM405.48,118.73V33.51h21.79v85.23h-21.79Z"/>
  <g class="cls-1">
    <path class="cls-2" d="M486.64,120.36c-6.94,0-13.17-1.15-18.71-3.46-5.53-2.31-10.25-5.52-14.15-9.65-3.9-4.13-6.91-8.82-9.03-14.07-2.11-5.25-3.17-10.78-3.17-16.57,0-7.93,1.81-15.2,5.45-21.79,3.63-6.59,8.81-11.88,15.53-15.85,6.72-3.97,14.69-5.95,23.91-5.95s17.13,2.01,23.75,6.02c6.61,4.01,11.55,9.27,14.8,15.78l-21.31,6.51c-1.85-3.14-4.29-5.56-7.32-7.24-3.04-1.68-6.4-2.52-10.08-2.52-4.12,0-7.89,1.04-11.3,3.11-3.42,2.07-6.1,5-8.05,8.78-1.95,3.78-2.93,8.17-2.93,13.16s1,9.23,3.01,13c2,3.78,4.69,6.75,8.05,8.93,3.36,2.18,7.1,3.27,11.22,3.27,2.6,0,5.07-.43,7.4-1.3,2.33-.87,4.42-2.06,6.26-3.58,1.84-1.52,3.2-3.25,4.07-5.21l21.31,6.51c-1.95,4.23-4.8,8.03-8.54,11.39-3.74,3.36-8.13,5.99-13.17,7.89-5.04,1.9-10.71,2.85-17,2.85Z"/>
  </g>
  <path class="cls-3" d="M532.84,60.02c0-7.05,1.27-13.96,3.82-20.74,2.55-6.78,6.26-12.96,11.14-18.54,4.88-5.58,10.84-10.03,17.89-13.34,7.05-3.31,15.07-4.96,24.07-4.96,10.62,0,19.82,2.33,27.57,6.99,7.75,4.66,13.52,10.74,17.32,18.22l-17.24,11.87c-1.95-4.33-4.5-7.78-7.64-10.33-3.15-2.55-6.51-4.33-10.08-5.37-3.58-1.03-7.1-1.54-10.57-1.54-5.64,0-10.55,1.14-14.72,3.42-4.17,2.28-7.67,5.26-10.49,8.95-2.82,3.69-4.91,7.81-6.26,12.36-1.36,4.55-2.03,9.11-2.03,13.66,0,5.1.81,10,2.44,14.72,1.63,4.72,3.93,8.89,6.91,12.52,2.98,3.63,6.56,6.51,10.74,8.62,4.17,2.12,8.75,3.17,13.74,3.17,3.58,0,7.21-.59,10.9-1.79,3.68-1.19,7.1-3.09,10.25-5.69,3.14-2.6,5.58-5.96,7.32-10.08l18.38,10.57c-2.28,5.75-5.99,10.63-11.14,14.64-5.15,4.01-10.93,7.05-17.32,9.11-6.4,2.06-12.74,3.09-19.03,3.09-8.24,0-15.78-1.71-22.61-5.12-6.83-3.42-12.71-7.97-17.65-13.66-4.94-5.69-8.78-12.09-11.55-19.19-2.76-7.1-4.15-14.29-4.15-21.55Z"/>
  <path class="cls-3" d="M643.44,93.84c0-5.46,1.54-10.26,4.63-14.38,3.09-4.12,7.4-7.31,12.93-9.56,5.53-2.25,11.87-3.38,19.03-3.38,3.58,0,7.21.27,10.9.81,3.69.54,6.88,1.41,9.6,2.6v-4.53c0-5.32-1.6-9.42-4.8-12.3-3.2-2.87-7.95-4.31-14.23-4.31-4.66,0-9.11.81-13.34,2.44-4.23,1.63-8.68,4.01-13.34,7.16l-6.99-14.31c5.64-3.69,11.41-6.45,17.32-8.29,5.91-1.84,12.12-2.77,18.62-2.77,12.14,0,21.6,2.99,28.38,8.98,6.78,5.99,10.17,14.54,10.17,25.65v26.78c0,2.25.41,3.85,1.22,4.81.81.96,2.14,1.55,3.99,1.76v17.73c-1.95.33-3.72.59-5.29.81-1.57.22-2.9.33-3.99.33-4.34,0-7.62-.98-9.84-2.93-2.22-1.95-3.61-4.34-4.15-7.16l-.49-4.39c-3.69,4.77-8.29,8.46-13.83,11.06s-11.17,3.9-16.92,3.9-10.71-1.15-15.21-3.45c-4.5-2.3-8.03-5.46-10.57-9.48-2.55-4.02-3.82-8.54-3.82-13.58ZM696.46,98.08c1.19-1.27,2.17-2.54,2.93-3.8.76-1.27,1.14-2.43,1.14-3.49v-8.41c-2.6-1.06-5.42-1.88-8.46-2.46-3.04-.58-5.91-.87-8.62-.87-5.64,0-10.28,1.19-13.91,3.57-3.63,2.38-5.45,5.52-5.45,9.44,0,2.12.59,4.12,1.79,6.03,1.19,1.9,2.93,3.44,5.21,4.6,2.28,1.16,4.99,1.74,8.13,1.74s6.45-.61,9.6-1.82c3.14-1.21,5.69-2.72,7.64-4.52Z"/>
  <g class="cls-1">
    <path class="cls-3" d="M793.4,52.37c-6.62,0-12.52,1.28-17.73,3.82-5.2,2.55-8.95,6.21-11.22,10.98v51.56h-21.79V34.32h20.01v17.4c3.04-5.86,6.88-10.46,11.55-13.83,4.66-3.36,9.6-5.21,14.8-5.53h2.77c.65,0,1.19.06,1.63.16v19.84Z"/>
  </g>
  <g class="cls-1">
    <path class="cls-3" d="M843.99,120.36c-6.83,0-13.01-1.15-18.54-3.46-5.53-2.3-10.25-5.47-14.15-9.49-3.9-4.02-6.91-8.63-9.03-13.83-2.11-5.2-3.17-10.7-3.17-16.49,0-8.04,1.81-15.39,5.45-22.04,3.63-6.65,8.84-11.99,15.61-16.01,6.78-4.02,14.77-6.03,23.99-6.03s17.29,2.02,23.91,6.04c6.61,4.03,11.68,9.34,15.21,15.95,3.52,6.6,5.29,13.72,5.29,21.35,0,1.29-.06,2.61-.16,3.95-.11,1.34-.22,2.44-.33,3.3h-65.87c.43,4.24,1.71,7.95,3.82,11.12,2.11,3.18,4.82,5.59,8.13,7.23,3.31,1.64,6.86,2.46,10.65,2.46,4.34,0,8.43-1.06,12.28-3.17,3.85-2.11,6.48-4.9,7.89-8.38l18.71,5.21c-2.06,4.34-5.02,8.19-8.86,11.55-3.85,3.36-8.38,5.99-13.58,7.89-5.21,1.9-10.95,2.85-17.24,2.85ZM821.71,69.78h44.57c-.43-4.24-1.65-7.92-3.66-11.05-2.01-3.13-4.63-5.56-7.89-7.31-3.25-1.75-6.89-2.62-10.9-2.62s-7.46.87-10.65,2.62c-3.2,1.75-5.8,4.19-7.81,7.31-2.01,3.13-3.23,6.81-3.66,11.05Z"/>
  </g>
</svg>